<svg width="16" height="16" viewBox="0 0 16 16" fill="none" xmlns="http://www.w3.org/2000/svg">
<path d="M7.99967 14.6668C7.07745 14.6668 6.21079 14.4918 5.39967 14.1418C4.58856 13.7918 3.88301 13.3168 3.28301 12.7168C2.68301 12.1168 2.20801 11.4113 1.85801 10.6002C1.50801 9.78905 1.33301 8.92238 1.33301 8.00016C1.33301 7.07794 1.50801 6.21127 1.85801 5.40016C2.20801 4.58905 2.68301 3.8835 3.28301 3.2835C3.88301 2.6835 4.58856 2.2085 5.39967 1.8585C6.21079 1.5085 7.07745 1.3335 7.99967 1.3335C8.9219 1.3335 9.78856 1.5085 10.5997 1.8585C11.4108 2.2085 12.1163 2.6835 12.7163 3.2835C13.3163 3.8835 13.7913 4.58905 14.1413 5.40016C14.4913 6.21127 14.6663 7.07794 14.6663 8.00016C14.6663 8.92238 14.4913 9.78905 14.1413 10.6002C13.7913 11.4113 13.3163 12.1168 12.7163 12.7168C12.1163 13.3168 11.4108 13.7918 10.5997 14.1418C9.78856 14.4918 8.9219 14.6668 7.99967 14.6668ZM7.99967 13.3335C9.48856 13.3335 10.7497 12.8168 11.783 11.7835C12.8163 10.7502 13.333 9.48905 13.333 8.00016C13.333 6.51127 12.8163 5.25016 11.783 4.21683C10.7497 3.1835 9.48856 2.66683 7.99967 2.66683C6.51079 2.66683 5.24967 3.1835 4.21634 4.21683C3.18301 5.25016 2.66634 6.51127 2.66634 8.00016C2.66634 9.48905 3.18301 10.7502 4.21634 11.7835C5.24967 12.8168 6.51079 13.3335 7.99967 13.3335Z" fill="#FF0000"/>
<path d="M10.1461 5.14002C10.3431 4.94502 10.6616 4.94502 10.8586 5.14002C11.0551 5.34002 11.0551 5.65499 10.8586 5.85499L8.71012 8.00501L10.8286 10.12C11.0241 10.315 11.0241 10.635 10.8286 10.83C10.6336 11.025 10.3166 11.025 10.1211 10.83L8.00312 8.71003L5.87012 10.845C5.67312 11.04 5.35414 11.04 5.15714 10.845C4.96064 10.645 4.96064 10.325 5.15714 10.13L7.29014 7.995L5.17212 5.88001C4.97662 5.68501 4.97662 5.36499 5.17212 5.16999C5.36662 4.97499 5.68363 4.97499 5.87913 5.16999L7.99714 7.28999L10.1461 5.14002Z" fill="#FF0000"/>
</svg>
