<svg width="16" height="16" viewBox="0 0 16 16" fill="none" xmlns="http://www.w3.org/2000/svg">
<mask id="mask0_165_523" style="mask-type:alpha" maskUnits="userSpaceOnUse" x="0" y="0" width="16" height="16">
<rect x="16" width="16" height="16" transform="rotate(90 16 0)" fill="#D9D9D9"/>
</mask>
<g mask="url(#mask0_165_523)">
<path d="M1.60039 8.0001C1.60039 7.12543 1.76839 6.29876 2.10439 5.5201C2.44039 4.74143 2.89906 4.06143 3.48039 3.4801C4.06172 2.89876 4.74172 2.4401 5.52039 2.1041C6.29906 1.7681 7.12572 1.6001 8.00039 1.6001C8.88572 1.6001 9.71506 1.76796 10.4884 2.1037C11.2617 2.43943 11.9391 2.89773 12.5204 3.4786C13.1017 4.05946 13.5604 4.73892 13.8964 5.51696C14.2324 6.29501 14.4004 7.12101 14.4004 7.99498C14.4004 8.17617 14.3448 8.32232 14.2337 8.43343C14.1226 8.54454 13.9809 8.6001 13.8086 8.6001C13.6363 8.6001 13.4918 8.54454 13.3752 8.43343C13.2587 8.32232 13.2004 8.17788 13.2004 8.0001C13.2004 6.55926 12.6976 5.33239 11.6921 4.31948C10.6865 3.30656 9.45872 2.8001 8.00872 2.8001C6.55872 2.8001 5.32817 3.30656 4.31706 4.31948C3.30595 5.33239 2.80039 6.55926 2.80039 8.0001C2.80039 9.45565 3.30685 10.6862 4.31977 11.6918C5.33268 12.6973 6.55956 13.2001 8.00039 13.2001C8.17817 13.2001 8.32261 13.2584 8.43372 13.3749C8.54483 13.4915 8.60039 13.636 8.60039 13.8083C8.60039 13.9806 8.54483 14.1223 8.43372 14.2334C8.32261 14.3445 8.17646 14.4001 7.99527 14.4001C7.12131 14.4001 6.2953 14.2321 5.51726 13.8961C4.73921 13.5601 4.05976 13.1014 3.47889 12.5201C2.89802 11.9388 2.43972 11.2614 2.10399 10.4881C1.76826 9.71476 1.60039 8.88543 1.60039 8.0001Z" fill="#475467"/>
</g>
</svg>
